<svg xmlns="http://www.w3.org/2000/svg" width="512" height="512" viewBox="0 0 512 512">
  <rect width="512" height="512" rx="100" fill="#6366f1"/>
  <path d="M200 150h112a20 20 0 0 1 20 20v172a20 20 0 0 1-20 20H200a20 20 0 0 1-20-20V170a20 20 0 0 1 20-20z" fill="none" stroke="white" stroke-width="20"/>
  <path d="M220 130h72a10 10 0 0 1 10 10v10H210v-10a10 10 0 0 1 10-10z" fill="white"/>
  <path d="M230 230l30 30 52-52" fill="none" stroke="#22c55e" stroke-width="24" stroke-linecap="round" stroke-linejoin="round"/>
  <text x="256" y="420" font-family="Arial" font-size="48" font-weight="bold" fill="white" text-anchor="middle">TaskGo</text>
</svg>
